<svg xmlns="http://www.w3.org/2000/svg" viewBox="0 0 100 100">
  <circle cx="50" cy="50" r="48" fill="#3e2723"/>
  <path d="M40 32 c-4 -4 2 -7 -1.5 -12" fill="none" stroke="#e0703a" stroke-width="4" stroke-linecap="round"/>
  <path d="M53 31 c-4 -5 2 -8 -1.5 -13" fill="none" stroke="#e0703a" stroke-width="4" stroke-linecap="round"/>
  <path d="M66 32 c-4 -4 2 -7 -1.5 -12" fill="none" stroke="#e0703a" stroke-width="4" stroke-linecap="round"/>
  <g>
    <path d="M28 42 h9 v34 a3 3 0 0 1 -3 3 h-3 a3 3 0 0 1 -3 -3 Z" fill="#d9c1ae"/>
    <rect x="39" y="42" width="9" height="36.5" rx="2" fill="#f0e5d8"/>
    <rect x="50" y="42" width="9" height="37" rx="2" fill="#d9c1ae"/>
    <path d="M61 42 h9 v34 a3 3 0 0 1 -3 3 h-3 a3 3 0 0 1 -3 -3 Z" fill="#f0e5d8"/>
  </g>
  <rect x="26" y="38.5" width="46" height="6" rx="3" fill="#e0703a"/>
  <rect x="25" y="55" width="48" height="5" rx="2.5" fill="#e0703a"/>
</svg>
